{
  "title": "Hand.of.God.S01E03.WEB-DLx264-NoGRP",
  "uid": 12359283,
  "size": 443999323,
  "categoryP": "other",
  "categoryS": "other",
  "magnet": "?xt=urn:btih:5f3f2f85b973d24616da5c73d7a5e9afb3114608&amp;dn=Hand.of.God.S01E03.WEB-DLx264-NoGRP&amp;tr=udp%3A%2F%2Ftracker.openbittorrent.com%3A80&amp;tr=udp%3A%2F%2Fopen.demonii.com%3A1337&amp;tr=udp%3A%2F%2Ftracker.coppersurfer.tk%3A6969&amp;tr=udp%3A%2F%2Fexodus.desync.com%3A6969",
  "seeders": 58,
  "leechers": 3,
  "uploader": "toots2boots",
  "files": 1,
  "time": 1441511586,
  "description": "General\nComplete name                            : M:PostsHand.of.God.S01E03.WEB-DLx264-NoGRPHand.of.God.S01E03.WEB-DLx264-NoGRP.mp4\nFormat                                   : MPEG-4\nFormat profile                           : Base Media\nCodec ID                                 : isom\nFile size                                : 423 MiB\nDuration                                 : 44mn 22s\nOverall bit rate                         : 1 334 Kbps\nMovie name                               :Hand of God: Season 1, Episode 3 &quot;Contemplating the Body&quot; - 05.09.2015, 00:04\nPerformer                                : Amazon\nGenre                                    : Capture\nRecorded date                            : 0\nWriting application                      : Lavf56.40.101\n\nVideo\nID                                       : 1\nFormat                                   : AVC\nFormat/Info                              : Advanced Video Codec\nFormat profile                           : &lt;a class=&quot;__cf_email__&quot; href=&quot;/cdn-cgi/l/email-protection&quot; data-cfemail=&quot;92dafbf5fad2dea1bca2&quot;&gt;[email&amp;#160;protected]&lt;/a&gt;&lt;script data-cfhash='f9e31' type=&quot;text/javascript&quot;&gt;\n/* &lt;![CDATA[ */!function(){try{var t=&quot;currentScript&quot;in document?document.currentScript:function(){for(var t=document.getElementsByTagName(&quot;script&quot;),e=t.length;e--;)if(t[e].getAttribute(&quot;data-cfhash&quot;))return t[e]}();if(t&amp;&amp;t.previousSibling){var e,r,n,i,c=t.previousSibling,a=c.getAttribute(&quot;data-cfemail&quot;);if(a){for(e=&quot;&quot;,r=parseInt(a.substr(0,2),16),n=2;a.length-n;n+=2)i=parseInt(a.substr(n,2),16)^r,e+=String.fromCharCode(i);e=document.createTextNode(e),c.parentNode.replaceChild(e,c)}t.parentNode.removeChild(t);}}catch(u){}}()/* ]]&gt; */&lt;/script&gt;\nFormat settings, CABAC                   : Yes\nFormat settings, ReFrames                : 4 frames\nCodec ID                                 : avc1\nCodec ID/Info                            : Advanced Video Coding\nDuration                                 : 44mn 22s\nBit rate                                 : 1 200 Kbps\nWidth                                    : 848 pixels\nHeight                                   : 480 pixels\nDisplay aspect ratio                     : 16:9\nFrame rate mode                          : Constant\nFrame rate                               : 25.000 fps\nColor space                              : YUV\nChroma subsampling                       : 4:2:0\nBit depth                                : 8 bits\nScan type                                : Progressive\nBits/(Pixel*Frame)                       : 0.118\nStream size                              : 381 MiB (90%)\nWriting library                          : x264 core 120 r2151 a3f4407\nEncoding settings                        : cabac=1 / ref=3 / deblock=1:0:0 / analyse=0x3:0x113 / me=hex / subme=7 / psy=1 / psy_rd=1.00:0.00 / mixed_ref=1 / me_range=16 / chroma_me=1 / trellis=1 / 8x8dct=1 / cqm=0 / deadzone=21,11 / fast_pskip=1 / chroma_qp_offset=-2 / threads=16 / sliced_threads=0 / nr=0 / decimate=1 / interlaced=0 / bluray_compat=0 / constrained_intra=0 / bframes=3 / b_pyramid=2 / b_adapt=1 / b_bias=0 / direct=1 / weightb=1 / open_gop=0 / weightp=2 / keyint=25 / keyint_min=2 / scenecut=40 / intra_refresh=0 / rc_lookahead=25 / rc=abr / mbtree=1 / bitrate=1200 / ratetol=1.0 / qcomp=0.60 / qpmin=0 / qpmax=69 / qpstep=4 / ip_ratio=1.40 / aq=1:1.00\n\nAudio\nID                                       : 2\nFormat                                   : AAC\nFormat/Info                              : Advanced Audio Codec\nFormat profile                           : LC\nCodec ID                                 : 40\nDuration                                 : 44mn 22s\nDuration_LastFrame                       : -9ms\nBit rate mode                            : Constant\nBit rate                                 : 128 Kbps\nChannel(s)                               : 2 channels\nChannel positions                        : Front: L R\nSampling rate                            : 48.0 KHz\nCompression mode                         : Lossy\nStream size                              : 40.6 MiB (10%)\nLanguage                                 : English",
  "parsed": {
    "xt": "urn:btih:5f3f2f85b973d24616da5c73d7a5e9afb3114608",
    "dn": "Hand.of.God.S01E03.WEB-DLx264-NoGRP",
    "tr": [
      "udp://exodus.desync.com:6969",
      "udp://open.demonii.com:1337",
      "udp://tracker.coppersurfer.tk:6969",
      "udp://tracker.openbittorrent.com:80"
    ],
    "infoHash": "5f3f2f85b973d24616da5c73d7a5e9afb3114608",
    "infoHashBuffer": {
      "type": "Buffer",
      "data": [
        95,
        63,
        47,
        133,
        185,
        115,
        210,
        70,
        22,
        218,
        92,
        115,
        215,
        165,
        233,
        175,
        179,
        17,
        70,
        8
      ]
    },
    "name": "Hand.of.God.S01E03.WEB-DLx264-NoGRP",
    "announce": [
      "udp://exodus.desync.com:6969",
      "udp://open.demonii.com:1337",
      "udp://tracker.coppersurfer.tk:6969",
      "udp://tracker.openbittorrent.com:80"
    ],
    "urlList": []
  },
  "previous": 61,
  "peers": 2,
  "last_updated": "2016-12-25T02:32:43.424Z"
}